<svg width="173" height="25" viewBox="0 0 173 25" fill="none" xmlns="http://www.w3.org/2000/svg">
<path d="M12.3409 9.64206C12.0171 7.23013 10.0739 5.73865 6.76705 5.73865C3.41762 5.73865 1.21023 7.28979 1.21876 9.81252C1.21023 11.7727 2.44603 13.0426 5.00285 13.554L7.26989 14.0057C8.41194 14.2358 8.93182 14.6534 8.94887 15.3097C8.93182 16.0852 8.08807 16.6392 6.81819 16.6392C5.52273 16.6392 4.66194 16.0852 4.44035 15.0199L0.869324 15.2074C1.21023 17.7131 3.34091 19.2557 6.80966 19.2557C10.2017 19.2557 12.6307 17.5256 12.6392 14.9432C12.6307 13.0512 11.3949 11.9176 8.85512 11.3977L6.4858 10.9205C5.26705 10.6563 4.81535 10.2387 4.82387 9.60797C4.81535 8.82388 5.70171 8.31251 6.82671 8.31251C8.08807 8.31251 8.83807 9.00286 9.01705 9.84661L12.3409 9.64206Z" fill="#F8F8F8"/>
<path d="M14.9254 23.9091H18.5561V16.9034H18.6669C19.1698 17.9943 20.2692 19.2131 22.3828 19.2131C25.3658 19.2131 27.6925 16.8523 27.6925 12.4716C27.6925 7.97161 25.2635 5.73865 22.3913 5.73865C20.201 5.73865 19.1527 7.04263 18.6669 8.10797H18.505V5.9091H14.9254V23.9091ZM18.4794 12.4546C18.4794 10.1193 19.468 8.62786 21.2323 8.62786C23.0305 8.62786 23.9851 10.1875 23.9851 12.4546C23.9851 14.7387 23.0135 16.3239 21.2323 16.3239C19.4851 16.3239 18.4794 14.7898 18.4794 12.4546Z" fill="#F8F8F8"/>
<path d="M33.8459 19.2472C35.7805 19.2472 37.0334 18.4034 37.6726 17.1847H37.7749V19H41.218V10.1705C41.218 7.05115 38.576 5.73865 35.6612 5.73865C32.5249 5.73865 30.4624 7.23865 29.9595 9.62502L33.3175 9.89774C33.5646 9.02842 34.3402 8.38922 35.6442 8.38922C36.88 8.38922 37.5874 9.01138 37.5874 10.0852V10.1364C37.5874 10.9801 36.6925 11.0909 34.4169 11.3125C31.826 11.5512 29.4993 12.4205 29.4993 15.3438C29.4993 17.9347 31.3487 19.2472 33.8459 19.2472ZM34.8857 16.7415C33.7692 16.7415 32.968 16.2216 32.968 15.2244C32.968 14.2017 33.8118 13.6989 35.0902 13.5199C35.8828 13.4091 37.1783 13.2216 37.6129 12.9318V14.321C37.6129 15.6932 36.4794 16.7415 34.8857 16.7415Z" fill="#F8F8F8"/>
<path d="M49.9496 19.2557C53.4354 19.2557 55.6257 17.2102 55.7962 14.2017H52.37C52.157 15.5994 51.2365 16.3835 49.9922 16.3835C48.2962 16.3835 47.1967 14.9602 47.1967 12.4546C47.1967 9.98297 48.3047 8.5682 49.9922 8.5682C51.3217 8.5682 52.174 9.44604 52.37 10.75H55.7962C55.6428 7.72445 53.3501 5.73865 49.9325 5.73865C45.9609 5.73865 43.5064 8.49149 43.5064 12.5057C43.5064 16.4858 45.9183 19.2557 49.9496 19.2557Z" fill="#F8F8F8"/>
<path d="M64.0867 19.2557C67.3253 19.2557 69.5071 17.679 70.0185 15.25L66.6605 15.0284C66.294 16.0256 65.3565 16.5455 64.1463 16.5455C62.331 16.5455 61.1804 15.3438 61.1804 13.3921V13.3835H70.0952V12.3864C70.0952 7.93752 67.402 5.73865 63.9418 5.73865C60.0895 5.73865 57.5923 8.47445 57.5923 12.5142C57.5923 16.6648 60.0554 19.2557 64.0867 19.2557ZM61.1804 11.1335C61.2571 9.64206 62.3906 8.44888 64.0014 8.44888C65.5781 8.44888 66.669 9.57388 66.6776 11.1335H61.1804Z" fill="#F8F8F8"/>
<path d="M79.4276 5.9091H76.9645V2.77274H73.3338V5.9091H71.544V8.63638H73.3338V15.4546C73.3168 18.0199 75.0639 19.2898 77.6974 19.179C78.6349 19.1449 79.2997 18.9574 79.6662 18.8381L79.0952 16.1364C78.9162 16.1705 78.5327 16.2557 78.1918 16.2557C77.4673 16.2557 76.9645 15.983 76.9645 14.9773V8.63638H79.4276V5.9091Z" fill="#F8F8F8"/>
<path d="M81.7926 19H85.4233V11.5938C85.4233 9.98297 86.5994 8.87502 88.2017 8.87502C88.7046 8.87502 89.3949 8.96024 89.7358 9.07104V5.84945C89.4119 5.77274 88.9602 5.7216 88.5938 5.7216C87.1278 5.7216 85.9261 6.57388 85.4489 8.1932H85.3125V5.9091H81.7926V19Z" fill="#F8F8F8"/>
<path d="M94.9709 19.2472C96.9055 19.2472 98.1584 18.4034 98.7976 17.1847H98.8999V19H102.343V10.1705C102.343 7.05115 99.701 5.73865 96.7862 5.73865C93.6499 5.73865 91.5874 7.23865 91.0845 9.62502L94.4425 9.89774C94.6896 9.02842 95.4652 8.38922 96.7692 8.38922C98.005 8.38922 98.7124 9.01138 98.7124 10.0852V10.1364C98.7124 10.9801 97.8175 11.0909 95.5419 11.3125C92.951 11.5512 90.6243 12.4205 90.6243 15.3438C90.6243 17.9347 92.4737 19.2472 94.9709 19.2472ZM96.0107 16.7415C94.8942 16.7415 94.093 16.2216 94.093 15.2244C94.093 14.2017 94.9368 13.6989 96.2152 13.5199C97.0078 13.4091 98.3033 13.2216 98.7379 12.9318V14.321C98.7379 15.6932 97.6044 16.7415 96.0107 16.7415Z" fill="#F8F8F8"/>
<path d="M116.896 5.9091H113.052L110.342 15.2756H110.205L107.487 5.9091H103.651L108.228 19H112.319L116.896 5.9091Z" fill="#F8F8F8"/>
<path d="M124.274 19.2557C127.513 19.2557 129.695 17.679 130.206 15.25L126.848 15.0284C126.482 16.0256 125.544 16.5455 124.334 16.5455C122.518 16.5455 121.368 15.3438 121.368 13.3921V13.3835H130.283V12.3864C130.283 7.93752 127.59 5.73865 124.129 5.73865C120.277 5.73865 117.78 8.47445 117.78 12.5142C117.78 16.6648 120.243 19.2557 124.274 19.2557ZM121.368 11.1335C121.445 9.64206 122.578 8.44888 124.189 8.44888C125.766 8.44888 126.857 9.57388 126.865 11.1335H121.368Z" fill="#F8F8F8"/>
<path d="M136.283 1.54547H132.652V19H136.283V1.54547Z" fill="#F8F8F8"/>
<path d="M139.191 19H142.822V5.9091H139.191V19ZM141.015 4.2216C142.097 4.2216 142.984 3.3949 142.984 2.3807C142.984 1.37501 142.097 0.548309 141.015 0.548309C139.941 0.548309 139.055 1.37501 139.055 2.3807C139.055 3.3949 139.941 4.2216 141.015 4.2216Z" fill="#F8F8F8"/>
<path d="M149.361 11.4318C149.369 9.74433 150.375 8.7557 151.841 8.7557C153.298 8.7557 154.176 9.71024 154.168 11.3125V19H157.798V10.6648C157.798 7.61365 156.009 5.73865 153.281 5.73865C151.338 5.73865 149.932 6.6932 149.344 8.21876H149.19V5.9091H145.73V19H149.361V11.4318Z" fill="#F8F8F8"/>
<path d="M166.558 24.1818C170.299 24.1818 172.958 22.4773 172.958 19.1279V5.9091H169.353V8.10797H169.217C168.731 7.04263 167.665 5.73865 165.475 5.73865C162.603 5.73865 160.174 7.97161 160.174 12.429C160.174 16.7841 162.535 18.8125 165.484 18.8125C167.572 18.8125 168.739 17.7642 169.217 16.6818H169.37V19.0767C169.37 20.875 168.219 21.5739 166.643 21.5739C165.04 21.5739 164.231 20.875 163.933 20.0824L160.575 20.5341C161.009 22.5966 163.029 24.1818 166.558 24.1818ZM166.634 16.0852C164.853 16.0852 163.881 14.6705 163.881 12.4119C163.881 10.1875 164.836 8.62786 166.634 8.62786C168.398 8.62786 169.387 10.1193 169.387 12.4119C169.387 14.7216 168.381 16.0852 166.634 16.0852Z" fill="#F8F8F8"/>
</svg>
